<?xml version="1.0" encoding="UTF-8" standalone="no"?>
<svg
   xmlns:dc="http://purl.org/dc/elements/1.1/"
   xmlns:cc="http://creativecommons.org/ns#"
   xmlns:rdf="http://www.w3.org/1999/02/22-rdf-syntax-ns#"
   xmlns:svg="http://www.w3.org/2000/svg"
   xmlns="http://www.w3.org/2000/svg"
   xmlns:sodipodi="http://sodipodi.sourceforge.net/DTD/sodipodi-0.dtd"
   xmlns:inkscape="http://www.inkscape.org/namespaces/inkscape"
   inkscape:export-ydpi="415.392"
   inkscape:export-xdpi="415.392"
   inkscape:export-filename="/Users/mpuccio/bitmap.png"
   id="SVGRoot"
   version="1.1"
   viewBox="0 0 52.646673 38.605731"
   height="38.605732mm"
   width="52.646671mm"
   sodipodi:docname="HIPEML_LOGO.svg"
   inkscape:version="1.0beta2 (2b71d25, 2019-12-03)">
  <defs
     id="defs324">
    <marker
       inkscape:stockid="Arrow2Lend"
       orient="auto"
       refY="0"
       refX="0"
       id="Arrow2Lend"
       style="overflow:visible"
       inkscape:isstock="true">
      <path
         inkscape:connector-curvature="0"
         id="path1128"
         style="fill:#000000;fill-opacity:1;fill-rule:evenodd;stroke:#000000;stroke-width:0.625;stroke-linejoin:round;stroke-opacity:1"
         d="M 8.7185878,4.0337352 -2.2072895,0.01601326 8.7185884,-4.0017078 c -1.7454984,2.3720609 -1.7354408,5.6174519 -6e-7,8.035443 z"
         transform="matrix(-1.1,0,0,-1.1,-1.1,0)" />
    </marker>
    <marker
       inkscape:stockid="Arrow2Lstart"
       orient="auto"
       refY="0"
       refX="0"
       id="marker1903"
       style="overflow:visible"
       inkscape:isstock="true">
      <path
         id="path1901"
         style="fill:#000000;fill-opacity:1;fill-rule:evenodd;stroke:#000000;stroke-width:0.625;stroke-linejoin:round;stroke-opacity:1"
         d="M 8.7185878,4.0337352 -2.2072895,0.01601326 8.7185884,-4.0017078 c -1.7454984,2.3720609 -1.7354408,5.6174519 -6e-7,8.035443 z"
         transform="matrix(1.1,0,0,1.1,1.1,0)"
         inkscape:connector-curvature="0" />
    </marker>
  </defs>
  <sodipodi:namedview
     id="base"
     pagecolor="#ffffff"
     bordercolor="#666666"
     borderopacity="1.0"
     inkscape:pageopacity="0.0"
     inkscape:pageshadow="2"
     inkscape:zoom="4.6009506"
     inkscape:cx="11.583773"
     inkscape:cy="30.911292"
     inkscape:document-units="mm"
     inkscape:current-layer="g127"
     inkscape:document-rotation="0"
     showgrid="false"
     inkscape:window-width="2560"
     inkscape:window-height="1340"
     inkscape:window-x="0"
     inkscape:window-y="23"
     inkscape:window-maximized="1"
     fit-margin-top="0"
     fit-margin-left="0"
     fit-margin-right="0"
     fit-margin-bottom="0" />
  <metadata
     id="metadata327">
    <rdf:RDF>
      <cc:Work
         rdf:about="">
        <dc:format>image/svg+xml</dc:format>
        <dc:type
           rdf:resource="http://purl.org/dc/dcmitype/StillImage" />
        <dc:title></dc:title>
      </cc:Work>
    </rdf:RDF>
  </metadata>
  <g
     inkscape:label="Layer 1"
     inkscape:groupmode="layer"
     id="layer1"
     transform="translate(-40.676202,-30.365498)">
    <g
       aria-label="hipe4ML"
       transform="scale(0.98342187,1.0168576)"
       id="text124"
       style="font-style:normal;font-weight:normal;font-size:13.0557px;line-height:1.25;font-family:sans-serif;fill:#000000;fill-opacity:1;stroke:none;stroke-width:0.326394">
      <path
         d="M 41.361905,65.061119 V 54.772105 h 1.185722 v 4.723767 q 0.509989,-0.822356 1.230347,-1.287721 0.720359,-0.465364 1.440717,-0.465364 0.605611,0 1.10285,0.312368 0.503613,0.305993 0.701234,0.745858 0.159371,0.337867 0.216745,0.720358 0.05737,0.376117 0.05737,1.561839 v 3.977909 h -1.18572 v -4.12453 q 0,-1.026352 -0.101997,-1.351469 -0.09562,-0.331493 -0.363367,-0.541863 -0.261369,-0.21037 -0.573737,-0.21037 -0.624735,0 -1.345094,0.592861 -0.713983,0.592862 -1.179348,1.485341 v 4.15003 z"
         style="font-style:normal;font-variant:normal;font-weight:normal;font-stretch:normal;font-family:Monaco;-inkscape-font-specification:Monaco;stroke-width:0.326394"
         id="path50"
         inkscape:connector-curvature="0" />
      <path
         d="M 51.185554,65.061119 V 58.92851 H 49.20935 v -0.988102 h 3.161927 v 6.132609 h 1.982579 v 0.988102 z m -0.19762,-9.689777 q 0,-0.401616 0.274118,-0.599237 0.274119,-0.19762 0.516364,-0.19762 0.248619,0 0.522738,0.19762 0.274118,0.197621 0.274118,0.599237 0,0.39524 -0.274118,0.592861 -0.274119,0.19762 -0.522738,0.19762 -0.242245,0 -0.516364,-0.19762 -0.274118,-0.197621 -0.274118,-0.592861 z"
         style="font-style:normal;font-variant:normal;font-weight:normal;font-stretch:normal;font-family:Monaco;-inkscape-font-specification:Monaco;stroke-width:0.326394"
         id="path52"
         inkscape:connector-curvature="0" />
      <path
         d="m 58.11502,59.540496 q 0.548238,-0.89248 1.306845,-1.345094 0.758608,-0.452615 1.396093,-0.452615 0.89248,0 1.606463,0.771357 0.713984,0.771358 0.713984,2.339572 0,1.236721 -0.478114,2.212074 -0.471739,0.968978 -1.262221,1.53634 -0.790482,0.560987 -1.95708,0.560987 -0.331492,0 -1.019977,-0.07012 -0.101997,-0.01275 -0.305993,-0.03187 v 2.766687 h -1.185722 v -9.887398 h 1.185722 z m 0,1.408842 v 3.053555 q 0.643861,0.165747 1.185723,0.165747 1.07735,0 1.810459,-0.841481 0.739483,-0.847856 0.739483,-2.314072 0,-1.064601 -0.401616,-1.600088 -0.401616,-0.535488 -0.911604,-0.535488 -0.554613,0 -1.223972,0.560987 -0.662985,0.560987 -1.198473,1.51084 z"
         style="font-style:normal;font-variant:normal;font-weight:normal;font-stretch:normal;font-family:Monaco;-inkscape-font-specification:Monaco;stroke-width:0.326394"
         id="path54"
         inkscape:connector-curvature="0" />
      <path
         d="m 70.769106,64.58938 q -1.421592,0.675734 -2.690188,0.675734 -0.962603,0 -1.721211,-0.478114 -0.758607,-0.478114 -1.217597,-1.364218 -0.452614,-0.89248 -0.452614,-1.906082 0,-0.975352 0.43349,-1.874207 0.43349,-0.898854 1.211222,-1.396092 0.777732,-0.503614 1.73396,-0.503614 1.268596,0 2.033578,0.905229 0.771358,0.90523 0.771358,2.792186 v 0.254994 h -4.908638 q 0,0.739483 0.305993,1.351469 0.312368,0.611986 0.815982,0.917979 0.503613,0.305993 1.147473,0.305993 1.147474,0 2.537192,-0.764982 z M 66.03259,60.809092 h 3.550793 v -0.172121 q 0,-0.873355 -0.427115,-1.389718 -0.427115,-0.516364 -1.141099,-0.516364 -0.720358,0 -1.249471,0.529113 -0.522738,0.522738 -0.733108,1.54909 z"
         style="font-style:normal;font-variant:normal;font-weight:normal;font-stretch:normal;font-family:Monaco;-inkscape-font-specification:Monaco;stroke-width:0.326394"
         id="path56"
         inkscape:connector-curvature="0" />
      <path
         d="M 79.356033,62.390055 H 77.94719 v 2.671064 h -1.223971 v -2.671064 h -4.545271 v -1.466216 l 4.596269,-5.354877 h 1.172973 v 5.801117 h 1.408843 z m -2.632814,-1.019976 v -4.283902 l -3.678291,4.283902 z"
         style="stroke-width:0.326394"
         id="path58"
         inkscape:connector-curvature="0" />
      <path
         d="m 86.215376,55.167346 h 1.262221 v 9.893773 h -1.185723 v -6.30473 l 0.03187,-0.86698 h -0.03187 l -2.887699,2.965175 v 0 z"
         style="font-style:normal;font-variant:normal;font-weight:normal;font-stretch:normal;font-family:Monaco;-inkscape-font-specification:Monaco;stroke-width:0.326394"
         id="path60"
         inkscape:connector-curvature="0"
         sodipodi:nodetypes="cccccccccc" />
      <path
         d="m 94.566433,63.971019 v 1.0901 h -5.342127 v -9.893773 h 1.28772 v 8.803673 z"
         style="font-style:normal;font-variant:normal;font-weight:normal;font-stretch:normal;font-family:Monaco;-inkscape-font-specification:Monaco;stroke-width:0.326394"
         id="path62"
         inkscape:connector-curvature="0" />
    </g>
    <g
       id="g127"
       transform="matrix(-0.41222809,-0.23800001,0.23800001,-0.41222809,78.105045,90.873403)">
      <path
         sodipodi:nodetypes="ccc"
         inkscape:connector-curvature="0"
         id="path337"
         d="m 23.574546,46.240603 6.437997,11.467857 5.979218,10.650647"
         style="fill:none;stroke:#000000;stroke-width:0.451681;stroke-linecap:butt;stroke-linejoin:miter;stroke-miterlimit:4;stroke-dasharray:none;stroke-opacity:1;marker-mid:url(#Arrow2Lend)" />
      <path
         style="fill:none;stroke:#000000;stroke-width:0.47479;stroke-linecap:butt;stroke-linejoin:miter;stroke-miterlimit:4;stroke-dasharray:none;stroke-opacity:1;marker-mid:url(#marker1903)"
         d="m 15.620702,90.85095 10.562817,-11.660252 9.8101,-10.829331"
         id="path337-6"
         inkscape:connector-curvature="0"
         sodipodi:nodetypes="ccc" />
      <path
         inkscape:transform-center-y="-0.39639229"
         inkscape:transform-center-x="-0.39738156"
         inkscape:connector-curvature="0"
         style="fill:none;stroke:#000000;stroke-width:0.472689;stroke-miterlimit:4;stroke-dasharray:none;stroke-opacity:1"
         d="m 35.991594,68.358905 c 0.274171,1.010791 0.708806,2.001617 1.205195,2.654848 0.496645,0.654611 1.049153,0.959475 1.522077,0.81886 0.473131,-0.139228 0.860478,-0.726243 1.079384,-1.574734 0.218873,-0.848505 0.266746,-1.948416 0.168042,-2.953727 -0.09868,-1.005308 -0.341235,-1.900762 -0.611992,-2.408001 -0.270755,-0.50724 -0.56357,-0.61553 -0.747801,-0.297519 -0.184232,0.318005 -0.254347,1.060461 -0.150241,1.98814 0.104059,0.927685 0.383426,2.026472 0.787798,2.94676 0.404423,0.920285 0.930088,1.646938 1.449505,1.94886 0.51916,0.300535 1.025856,0.16983 1.398932,-0.352884 0.373127,-0.522712 0.608176,-1.430045 0.670128,-2.439894 0.06195,-1.00985 -0.04876,-2.104003 -0.258133,-2.943192 -0.209215,-0.837799 -0.512329,-1.405581 -0.774879,-1.528946 -0.2623,-0.121953 -0.477818,0.204165 -0.540152,0.871609 -0.06238,0.667449 0.03213,1.667477 0.291237,2.678083 0.259261,1.011994 0.682051,2.020615 1.172948,2.705165 0.490946,0.684544 1.044346,1.031437 1.524646,0.93233 0.480045,-0.100486 0.880945,-0.6479 1.114922,-1.473749 0.234189,-0.824462 0.299055,-1.914544 0.213714,-2.927942 -0.0855,-1.01479 -0.318696,-1.936262 -0.586669,-2.477408 -0.268223,-0.542529 -0.565434,-0.695374 -0.759421,-0.415874 -0.193989,0.279498 -0.279427,0.988105 -0.191111,1.898815 0.08848,0.9121 0.351771,2.010781 0.744896,2.947415 0.392867,0.935252 0.912196,1.694695 1.432037,2.034472 0.519842,0.339779 1.034077,0.253362 1.419189,-0.233821 0.385165,-0.487195 0.636546,-1.369182 0.714258,-2.369074 0.07771,-0.999897 -0.01858,-2.103634 -0.218819,-2.964611 -0.200444,-0.862364 -0.500494,-1.468287 -0.766465,-1.630671 -0.265973,-0.162384 -0.491923,0.121102 -0.56817,0.757386 -0.07621,0.636298 0.0011,1.616652 0.245402,2.627048 0.244492,1.011784 0.654685,2.036858 1.139275,2.749984 0.484643,0.713124 1.038388,1.102093 1.525209,1.043156 0.486822,-0.05893 0.900264,-0.569464 1.149583,-1.368483 0.249063,-0.800401 0.331046,-1.879233 0.259397,-2.899349 -0.07191,-1.021499 -0.294905,-1.96625 -0.55983,-2.542729 -0.264936,-0.576476 -0.565945,-0.773925 -0.769141,-0.53298 -0.203402,0.23956 -0.303465,0.915663 -0.230914,1.807993 0.07256,0.892332 0.319694,1.989513 0.700856,2.939742 0.381317,0.951621 0.893502,1.741113 1.413219,2.118794 0.519715,0.37768 1.040835,0.335647 1.437543,-0.116012 0.396908,-0.450251 0.664583,-1.304081 0.757858,-2.294003 0.09353,-0.988539 0.01217,-2.099099 -0.178582,-2.981892 -0.190812,-0.88279 -0.487041,-1.52551 -0.756094,-1.728344 -0.269051,-0.202834 -0.504874,0.03796 -0.594488,0.643028 -0.08984,0.603714 -0.02936,1.564376 0.199744,2.571787 0.229156,1.007407 0.626348,2.047566 1.104236,2.789301 0.477888,0.741737 1.031221,1.171437 1.524014,1.15272 0.492745,-0.01872 0.918852,-0.488161 1.182856,-1.261701 0.264058,-0.773543 0.363165,-1.83972 0.305198,-2.866559 -0.05776,-1.025447 -0.270266,-1.9935 -0.531473,-2.603958 -0.260997,-0.609074 -0.564949,-0.849792 -0.77701,-0.648827 -0.212062,0.200959 -0.32686,0.84036 -0.269702,1.714287 0.05696,0.872541 0.287237,1.964064 0.656504,2.929288 0.36905,0.963839 0.87354,1.783424 1.392632,2.199046 0.518939,0.414232 1.046146,0.415189 1.454251,0.0019 0.408107,-0.413262 0.691629,-1.2389 0.800984,-2.214682 0.109149,-0.977168 0.0432,-2.091775 -0.13784,-2.996406 -0.180829,-0.903243 -0.472527,-1.581414 -0.743907,-1.823357 -0.271583,-0.243328 -0.516587,-0.04532 -0.619371,0.527148 -0.102978,0.571084 -0.0597,1.507883 0.154369,2.512297 0.213822,1.003031 0.597447,2.055513 1.068027,2.824502 0.47058,0.768991 1.022904,1.239473 1.521071,1.26102 0.498169,0.02155 0.936084,-0.408155 1.214886,-1.153416 0.278753,-0.745257 0.394787,-1.798764 0.35117,-2.828166 -0.04335,-1.028017 -0.244883,-2.018004 -0.501701,-2.661097 -0.256556,-0.64171 -0.562648,-0.924356 -0.783231,-0.76481 -0.22033,0.160931 -0.349109,0.76497 -0.307717,1.616312 0.0416,0.852731 0.255251,1.938576 0.611835,2.914649 0.356582,0.976073 0.852824,1.82439 1.370382,2.275223 0.517713,0.452223 1.050617,0.497632 1.46937,0.121402 0.418806,-0.376234 0.718183,-1.170873 0.843163,-2.133882 0.12496,-0.963016 0.07463,-2.080277 -0.09576,-3.00261 -0.17039,-0.92233 -0.457117,-1.635987 -0.73022,-1.917085 -0.273313,-0.282486 -0.526947,-0.127295 -0.642765,0.409744 -0.115832,0.537044 -0.08915,1.451314 0.109275,2.448572 0.198423,0.997255 0.568291,2.062075 1.031005,2.85696 0.462511,0.793501 1.013073,1.303421 1.516014,1.365281 0.5032,0.06329 0.952528,-0.325275 1.245684,-1.042223 0.2931,-0.716943 0.426424,-1.753603 0.39742,-2.784183"
         title="t*pi+cos(3*pi*t) sin(3*pi*t)"
         id="path2123" />
      <ellipse
         ry="3.96875"
         rx="3.7041667"
         cy="50.403214"
         cx="73.019836"
         id="path2128"
         style="fill:#70ae98;fill-opacity:1;stroke:#000000;stroke-width:0.418999;stroke-miterlimit:4;stroke-dasharray:none;stroke-opacity:1" />
      <ellipse
         transform="matrix(0.99988847,-0.01493473,-0.01519677,0.99988452,0,0)"
         style="fill:#9dabdd;fill-opacity:1;stroke:#000000;stroke-width:0.426068;stroke-miterlimit:4;stroke-dasharray:none;stroke-opacity:1"
         id="path2128-0"
         cx="115.22384"
         cy="51.35268"
         rx="3.7995656"
         ry="4.0007668" />
      <ellipse
         transform="matrix(0.99988847,-0.01493473,-0.01519677,0.99988452,0,0)"
         ry="4.0007668"
         rx="3.7995656"
         cy="62.578987"
         cx="91.889328"
         id="path2128-0-4"
         style="fill:#e58b88;fill-opacity:1;stroke:#000000;stroke-width:0.426068;stroke-miterlimit:4;stroke-dasharray:none;stroke-opacity:1" />
      <ellipse
         transform="matrix(0.99988847,-0.01493473,-0.01519677,0.99988452,0,0)"
         style="fill:#d9effc;fill-opacity:1;stroke:#000000;stroke-width:0.426068;stroke-miterlimit:4;stroke-dasharray:none;stroke-opacity:1"
         id="path2128-0-4-3"
         cx="78.031708"
         cy="78.429512"
         rx="3.7995656"
         ry="4.0007668" />
      <ellipse
         transform="matrix(0.99988847,-0.01493473,-0.01519677,0.99988452,0,0)"
         ry="4.0007668"
         rx="3.7995656"
         cy="77.533974"
         cx="115.92529"
         id="path2128-0-4-3-1"
         style="fill:#adddce;fill-opacity:1;stroke:#000000;stroke-width:0.426068;stroke-miterlimit:4;stroke-dasharray:none;stroke-opacity:1" />
      <ellipse
         transform="matrix(0.99988847,-0.01493473,-0.01519677,0.99988452,0,0)"
         style="fill:#ecbe7a;fill-opacity:1;stroke:#000000;stroke-width:0.426068;stroke-miterlimit:4;stroke-dasharray:none;stroke-opacity:1"
         id="path2128-0-4-3-1-6"
         cx="86.290329"
         cy="35.875599"
         rx="3.7995656"
         ry="4.0007668" />
      <ellipse
         transform="matrix(0.99988847,-0.01493473,-0.01519677,0.99988452,0,0)"
         style="fill:#ffd5e5;fill-opacity:1;stroke:#000000;stroke-width:0.426068;stroke-miterlimit:4;stroke-dasharray:none;stroke-opacity:1"
         id="path2128-0-4-9"
         cx="95.899948"
         cy="85.269958"
         rx="3.7995656"
         ry="4.0007668" />
      <path
         id="path68"
         title="t*pi+cos(3*pi*t) sin(3*pi*t)"
         d="m 35.983333,52.652083 c 0.158851,1.150262 0.526963,2.29271 1.038351,3.064761 0.511453,0.773613 1.160947,1.162765 1.79325,1.048676 0.632304,-0.112526 1.23992,-0.731416 1.681576,-1.656628 0.441656,-0.92521 0.712052,-2.145801 0.776872,-3.274182 0.06482,-1.128383 -0.07548,-2.147365 -0.325716,-2.736561 -0.250233,-0.589197 -0.604579,-0.736105 -0.900955,-0.398528 -0.296376,0.337576 -0.52735,1.158075 -0.570456,2.200501 -0.04317,1.042425 0.105599,2.291146 0.448377,3.352325 0.342843,1.06118 0.877754,1.917625 1.485435,2.300525 0.607616,0.381336 1.28128,0.281314 1.858393,-0.267249 0.577178,-0.548563 1.050695,-1.53785 1.32206,-2.656855 0.271366,-1.119005 0.337673,-2.34741 0.229165,-3.300751 -0.108572,-0.95178 -0.388726,-1.611305 -0.701453,-1.772279 -0.312662,-0.159412 -0.650657,0.184417 -0.857398,0.922084 -0.206803,0.737668 -0.275954,1.859799 -0.136361,3.008499 0.139529,1.150262 0.489092,2.311463 0.98749,3.117897 0.498463,0.806434 1.141106,1.24247 1.774961,1.175267 0.63379,-0.06876 1.251229,-0.642333 1.707878,-1.540975 0.45665,-0.89708 0.747016,-2.105167 0.830449,-3.241363 0.0835,-1.13776 -0.03987,-2.184873 -0.280091,-2.811579 -0.240281,-0.628268 -0.591783,-0.825187 -0.893329,-0.53137 -0.301547,0.293817 -0.545704,1.075245 -0.605807,2.097352 -0.06016,1.023671 0.06805,2.27083 0.393316,3.3492 0.325199,1.076808 0.845764,1.969199 1.446788,2.394296 0.601025,0.425097 1.275917,0.375085 1.86169,-0.132842 0.585837,-0.507929 1.075446,-1.467522 1.365101,-2.574024 0.289654,-1.106503 0.376253,-2.344285 0.283579,-3.321069 -0.09267,-0.978348 -0.361648,-1.680071 -0.671337,-1.884804 -0.309689,-0.204735 -0.652919,0.09065 -0.87155,0.792367 -0.218631,0.701722 -0.306006,1.800411 -0.185348,2.947546 0.120657,1.1487 0.450962,2.327093 0.935852,3.164784 0.484957,0.837691 1.120039,1.320613 1.754605,1.298733 0.634565,-0.02187 1.261052,-0.553251 1.732242,-1.420636 0.471126,-0.868948 0.781267,-2.06297 0.883506,-3.205417 0.102175,-1.144011 -0.0037,-2.21613 -0.233301,-2.881907 -0.229617,-0.665777 -0.5775,-0.912708 -0.883505,-0.662651 -0.306006,0.248494 -0.562701,0.992414 -0.639478,1.992642 -0.07678,1.000227 0.03102,2.244261 0.338384,3.336697 0.307297,1.094 0.812999,2.01921 1.406655,2.486504 0.593658,0.467293 1.268937,0.467293 1.862789,0 0.59385,-0.465731 1.098969,-1.392504 1.406655,-2.486504 0.30775,-1.092436 0.414772,-2.33647 0.338384,-3.336697 -0.07645,-1.000228 -0.333537,-1.742584 -0.639478,-1.992642 -0.305941,-0.250057 -0.653695,-0.0031 -0.883506,0.662651 -0.229875,0.664214 -0.335087,1.739459 -0.233301,2.881907 0.101852,1.142447 0.412639,2.336469 0.883506,3.205417 0.470868,0.868948 1.097677,1.397193 1.732243,1.420636 0.634501,0.02344 1.26939,-0.461042 1.754539,-1.298733 0.485215,-0.837691 0.814873,-2.016084 0.935918,-3.164784 0.121045,-1.147135 0.03303,-2.244261 -0.185348,-2.947546 -0.218373,-0.701722 -0.561797,-0.997102 -0.871551,-0.792367 -0.309753,0.204733 -0.57834,0.906456 -0.671337,1.884804 -0.093,0.976784 -0.0057,2.213004 0.28358,3.321069 0.289267,1.106502 0.779393,2.064532 1.365036,2.574024 0.585709,0.507927 1.2606,0.556376 1.861754,0.132842 0.601154,-0.423534 1.121202,-1.317488 1.446789,-2.394296 0.325587,-1.07837 0.453095,-2.325529 0.393316,-3.3492 -0.05978,-1.022107 -0.304326,-1.803535 -0.605807,-2.097352 -0.301482,-0.29538 -0.652855,-0.0969 -0.89333,0.53137 -0.240474,0.626706 -0.363199,1.673819 -0.28009,2.811579 0.08305,1.136196 0.374122,2.342721 0.830448,3.241363 0.456327,0.898642 1.074089,1.47221 1.707879,1.540975 0.63379,0.06877 1.27624,-0.370396 1.774961,-1.175267 0.498656,-0.804871 0.847573,-1.967635 0.987489,-3.117897 0.139981,-1.1487 0.07019,-2.269267 -0.136361,-3.008499 -0.206481,-0.737667 -0.544671,-1.079932 -0.857461,-0.922084 -0.312727,0.159411 -0.592494,0.820499 -0.70139,1.772279 -0.108894,0.953341 -0.04181,2.181746 0.229166,3.300751 0.270978,1.119005 0.745076,2.108292 1.32206,2.656855 0.576916,0.550125 1.250648,0.648585 1.858393,0.267249 0.607812,-0.381337 1.142268,-1.239345 1.485433,-2.300525 0.343167,-1.061179 0.491159,-2.3099 0.44838,-3.352325 -0.04278,-1.042426 -0.274211,-1.862925 -0.570458,-2.200501 -0.296246,-0.33914 -0.65053,-0.189107 -0.900956,0.398528 -0.250488,0.587634 -0.390148,1.608178 -0.325713,2.736561 0.06443,1.128381 0.33554,2.347409 0.776872,3.274182 0.441331,0.925212 1.049338,1.542539 1.681574,1.656628 0.632304,0.115651 1.281539,-0.276625 1.793253,-1.048676 0.511643,-0.772051 0.879495,-1.914499 1.038348,-3.064761"
         style="fill:none;stroke:#000000;stroke-width:0.3154;stroke-miterlimit:4;stroke-dasharray:none;stroke-opacity:0"
         inkscape:connector-curvature="0" />
      <path
         id="path2123-4"
         title="t*pi+cos(3*pi*t) sin(3*pi*t)"
         d="m 23.168577,58.250176 c -0.03978,0.320395 -0.02588,0.671828 0.05019,0.950793 0.07596,0.279372 0.213706,0.481837 0.382138,0.552387 0.168319,0.07096 0.365631,0.008 0.542145,-0.159799 0.176508,-0.167809 0.330129,-0.438474 0.425146,-0.717935 0.09501,-0.279463 0.13035,-0.563226 0.10786,-0.754009 -0.02247,-0.190776 -0.102193,-0.284446 -0.200926,-0.244573 -0.09873,0.03987 -0.214481,0.214051 -0.297998,0.474875 -0.08353,0.260812 -0.13272,0.604893 -0.119601,0.931464 0.01306,0.326574 0.08928,0.630922 0.216849,0.825178 0.127668,0.193844 0.305618,0.274537 0.490292,0.224827 0.184689,-0.04969 0.37375,-0.228919 0.520537,-0.473361 0.146793,-0.244437 0.249146,-0.549347 0.287978,-0.81124 0.0387,-0.261502 0.01353,-0.475061 -0.05463,-0.565769 -0.06826,-0.09028 -0.177985,-0.05539 -0.281816,0.101356 -0.103851,0.15673 -0.199532,0.433902 -0.244076,0.750862 -0.04467,0.317344 -0.03679,0.670663 0.03357,0.956402 0.07036,0.285748 0.203126,0.499167 0.368684,0.582 0.16565,0.08242 0.362299,0.03263 0.540768,-0.125955 0.178366,-0.158208 0.336174,-0.422521 0.436458,-0.70105 0.100408,-0.278921 0.142001,-0.567233 0.124663,-0.766063 -0.01721,-0.199234 -0.09276,-0.305296 -0.189743,-0.277477 -0.09699,0.02783 -0.213369,0.189888 -0.299787,0.442812 -0.08654,0.253314 -0.140832,0.593751 -0.133357,0.921967 0.0076,0.327805 0.07753,0.639109 0.200508,0.843153 0.122951,0.204039 0.297731,0.297765 0.481769,0.259851 0.184059,-0.0379 0.375138,-0.206955 0.525697,-0.445297 0.150569,-0.238336 0.258712,-0.54246 0.303203,-0.807865 0.04461,-0.26581 0.02519,-0.48844 -0.03918,-0.589906 -0.06435,-0.10146 -0.172029,-0.07982 -0.276377,0.06582 -0.104348,0.145637 -0.203017,0.413917 -0.252265,0.727478 -0.04936,0.313965 -0.04757,0.668656 0.0172,0.960286 0.06477,0.291643 0.192333,0.515904 0.354917,0.610486 0.162584,0.09458 0.358592,0.05709 0.538578,-0.09121 0.180078,-0.1487 0.341931,-0.406277 0.447421,-0.683444 0.105582,-0.277579 0.153359,-0.569546 0.141436,-0.77673 -0.01188,-0.207183 -0.08303,-0.325513 -0.178108,-0.309633 -0.09498,0.01543 -0.211916,0.16594 -0.301044,0.410612 -0.08913,0.244675 -0.148382,0.581086 -0.146427,0.910086 0.0018,0.32939 0.0658,0.646781 0.183903,0.860486 0.118146,0.21371 0.28954,0.320337 0.472803,0.294135 0.183146,-0.02583 0.375886,-0.183981 0.530147,-0.416271 0.154174,-0.231874 0.267899,-0.534408 0.318205,-0.803221 0.05023,-0.268866 0.03667,-0.500051 -0.02357,-0.612557 -0.06024,-0.112507 -0.165702,-0.104013 -0.270372,0.03064 -0.104592,0.13423 -0.206147,0.39368 -0.259867,0.703053 -0.05369,0.30939 -0.05794,0.665011 0.0011,0.962452 0.05905,0.297443 0.181325,0.532035 0.340754,0.638251 0.159415,0.106196 0.354289,0.08207 0.535749,-0.0564 0.181479,-0.138448 0.347195,-0.388934 0.457896,-0.664733 0.110578,-0.275411 0.164638,-0.57097 0.158177,-0.786011 -0.0066,-0.21464 -0.07317,-0.344702 -0.166044,-0.341049 -0.09286,0.0037 -0.209901,0.141404 -0.301623,0.377897 -0.09162,0.236083 -0.155524,0.56726 -0.159249,0.897418 -0.0037,0.329754 0.05407,0.653108 0.167274,0.876385 0.113296,0.222886 0.281222,0.341891 0.46329,0.328078 0.182076,-0.01379 0.376303,-0.161213 0.533915,-0.38626 0.15772,-0.225446 0.276925,-0.525496 0.333014,-0.797759 0.05599,-0.27185 0.04833,-0.511085 -0.0078,-0.634124 -0.05597,-0.12344 -0.158958,-0.127963 -0.263734,-0.0046 -0.10467,0.122927 -0.208713,0.37239 -0.266844,0.677609 -0.05803,0.304818 -0.06815,0.660539 -0.01487,0.963306 0.05325,0.302768 0.170116,0.547568 0.326192,0.665298 0.156076,0.117734 0.349715,0.106425 0.532335,-0.02147 0.182605,-0.127903 0.352124,-0.371332 0.467722,-0.644553 0.1155,-0.272817 0.175813,-0.571523 0.174853,-0.793925 -0.0011,-0.22199 -0.06305,-0.363263 -0.153431,-0.372127 -0.09046,-0.0083 -0.20751,0.117099 -0.301419,0.344262 -0.09402,0.227561 -0.162514,0.553531 -0.171647,0.883607 -0.0091,0.330078 0.0423,0.658925 0.150574,0.890868 0.108117,0.232331 0.272271,0.363989 0.453078,0.36205 0.180822,-0.0019 0.376212,-0.137821 0.537194,-0.356081 0.160984,-0.218259 0.285498,-0.515476 0.34721,-0.789866 0.06172,-0.274386 0.0601,-0.52158 0.0084,-0.655027 -0.05157,-0.133845 -0.151947,-0.151266 -0.256418,-0.03991 -0.104492,0.111313 -0.210993,0.351274 -0.2732,0.651147 -0.06221,0.29987 -0.07827,0.655649 -0.03078,0.963272 0.0476,0.307222 0.158913,0.561719 0.311462,0.690836 0.152431,0.129543 0.34453,0.131338 0.528167,0.01395 0.183612,-0.117428 0.356522,-0.35265 0.476927,-0.622885"
         style="fill:none;stroke:#000000;stroke-width:0.296218;stroke-miterlimit:4;stroke-dasharray:none;stroke-opacity:1"
         inkscape:connector-curvature="0" />
      <path
         inkscape:connector-curvature="0"
         id="path894"
         d="M 87.485908,58.762274 76.653171,52.460004"
         style="fill:none;stroke:#000000;stroke-width:0.346639;stroke-linecap:butt;stroke-linejoin:miter;stroke-miterlimit:4;stroke-dasharray:none;stroke-opacity:1"
         sodipodi:nodetypes="cc" />
      <path
         inkscape:connector-curvature="0"
         id="path896"
         d="m 71.527279,54.510125 -3.877944,11.293906 6.79665,7.87864"
         style="fill:none;stroke:#000000;stroke-width:0.346639;stroke-linecap:butt;stroke-linejoin:miter;stroke-miterlimit:4;stroke-dasharray:none;stroke-opacity:1"
         sodipodi:nodetypes="ccc" />
      <path
         inkscape:connector-curvature="0"
         id="path900"
         d="M 90.682062,82.369263 80.798426,78.673751"
         style="fill:none;stroke:#000000;stroke-width:0.346639;stroke-linecap:butt;stroke-linejoin:miter;stroke-miterlimit:4;stroke-dasharray:none;stroke-opacity:1"
         sodipodi:nodetypes="cc" />
      <path
         inkscape:connector-curvature="0"
         id="path902"
         d="M 84.820426,38.961626 77.425913,72.828647"
         style="fill:none;stroke:#000000;stroke-width:0.346639;stroke-linecap:butt;stroke-linejoin:miter;stroke-miterlimit:4;stroke-dasharray:none;stroke-opacity:1"
         sodipodi:nodetypes="cc" />
      <path
         inkscape:connector-curvature="0"
         id="path904"
         d="M 74.836076,54.332655 92.367058,80.175688"
         style="fill:none;stroke:#000000;stroke-width:0.346639;stroke-linecap:butt;stroke-linejoin:miter;stroke-miterlimit:4;stroke-dasharray:none;stroke-opacity:1"
         sodipodi:nodetypes="cc" />
      <path
         inkscape:connector-curvature="0"
         id="path908"
         d="m 88.245649,64.679595 -8.239713,9.56264"
         style="fill:none;stroke:#000000;stroke-width:0.346639;stroke-linecap:butt;stroke-linejoin:miter;stroke-miterlimit:4;stroke-dasharray:none;stroke-opacity:1"
         sodipodi:nodetypes="cc" />
      <path
         inkscape:connector-curvature="0"
         id="path910"
         d="M 110.78781,47.354287 89.631743,36.2213"
         style="fill:none;stroke:#000000;stroke-width:0.346639;stroke-linecap:butt;stroke-linejoin:miter;stroke-miterlimit:4;stroke-dasharray:none;stroke-opacity:1"
         sodipodi:nodetypes="cc" />
      <path
         inkscape:connector-curvature="0"
         id="path912"
         d="M 110.48874,51.243563 94.69935,59.035771"
         style="fill:none;stroke:#000000;stroke-width:0.346639;stroke-linecap:butt;stroke-linejoin:miter;stroke-miterlimit:4;stroke-dasharray:none;stroke-opacity:1"
         sodipodi:nodetypes="cc" />
      <path
         inkscape:connector-curvature="0"
         id="path914"
         d="M 111.11848,73.719608 94.497199,63.500557"
         style="fill:none;stroke:#000000;stroke-width:0.346639;stroke-linecap:butt;stroke-linejoin:miter;stroke-miterlimit:4;stroke-dasharray:none;stroke-opacity:1"
         sodipodi:nodetypes="cc" />
      <path
         inkscape:connector-curvature="0"
         id="path916"
         d="M 110.7463,77.143281 98.537922,82.34213"
         style="fill:none;stroke:#000000;stroke-width:0.346639;stroke-linecap:butt;stroke-linejoin:miter;stroke-miterlimit:4;stroke-dasharray:none;stroke-opacity:1"
         sodipodi:nodetypes="cc" />
      <path
         inkscape:connector-curvature="0"
         id="path918"
         d="M 112.5061,53.690227 96.525426,79.850848"
         style="fill:none;stroke:#000000;stroke-width:0.346639;stroke-linecap:butt;stroke-linejoin:miter;stroke-miterlimit:4;stroke-dasharray:none;stroke-opacity:1"
         sodipodi:nodetypes="cc" />
      <path
         inkscape:connector-curvature="0"
         id="path920"
         d="m 87.922625,38.285711 24.504295,33.93276"
         style="fill:none;stroke:#000000;stroke-width:0.346639;stroke-linecap:butt;stroke-linejoin:miter;stroke-miterlimit:4;stroke-dasharray:none;stroke-opacity:1"
         sodipodi:nodetypes="cc" />
      <path
         inkscape:connector-curvature="0"
         id="path937"
         d="m 82.766707,37.829191 -7.242483,9.144447"
         style="fill:none;stroke:#000000;stroke-width:0.346639;stroke-linecap:butt;stroke-linejoin:miter;stroke-miterlimit:4;stroke-dasharray:none;stroke-opacity:1"
         sodipodi:nodetypes="cc" />
    </g>
    <text
       style="font-style:normal;font-weight:normal;font-size:10.58329999999999949px;line-height:1.25;font-family:sans-serif;shape-inside:url(#rect50);fill:#000000;fill-opacity:1;stroke:none;"
       id="text48"
       xml:space="preserve" />
    <path
       style="fill:none;stroke:#000000;stroke-width:0.144;stroke-linecap:butt;stroke-linejoin:miter;stroke-miterlimit:4;stroke-dasharray:none;stroke-opacity:1"
       d="m 79.667341,56.198637 -0.181684,0.135566"
       id="path893"
       inkscape:connector-curvature="0" />
  </g>
</svg>
